<svg id="Layer_1" data-name="Layer 1" xmlns="http://www.w3.org/2000/svg" viewBox="0 0 12 11"><defs><style>.cls-1{fill:#231f20;}</style></defs><rect class="cls-1" x="11" y="6" width="1" height="1"/><rect class="cls-1" x="11" y="3" width="1" height="1"/><rect class="cls-1" x="10" y="6" width="1" height="1"/><rect class="cls-1" x="10" y="3" width="1" height="1"/><rect class="cls-1" x="10" y="1" width="1" height="1"/><rect class="cls-1" x="9" y="10" width="1" height="1"/><rect class="cls-1" x="9" y="9" width="1" height="1"/><rect class="cls-1" x="9" y="8" width="1" height="1"/><rect class="cls-1" x="9" y="7" width="1" height="1"/><rect class="cls-1" x="9" y="6" width="1" height="1"/><rect class="cls-1" x="9" y="5" width="1" height="1"/><rect class="cls-1" x="9" y="3" width="1" height="1"/><rect class="cls-1" x="9" y="1" width="1" height="1"/><rect class="cls-1" x="8" y="10" width="1" height="1"/><rect class="cls-1" x="8" y="6" width="1" height="1"/><rect class="cls-1" x="8" y="3" width="1" height="1"/><rect class="cls-1" x="8" y="2" width="1" height="1"/><rect class="cls-1" x="8" y="1" width="1" height="1"/><rect class="cls-1" x="8" width="1" height="1"/><rect class="cls-1" x="7" y="6" width="1" height="1"/><rect class="cls-1" x="7" y="3" width="1" height="1"/><rect class="cls-1" x="7" y="1" width="1" height="1"/><rect class="cls-1" x="6" y="9" width="1" height="1"/><rect class="cls-1" x="6" y="6" width="1" height="1"/><rect class="cls-1" x="6" y="3" width="1" height="1"/><rect class="cls-1" x="6" y="1" width="1" height="1"/><rect class="cls-1" x="5" y="8" width="1" height="1"/><rect class="cls-1" x="5" y="6" width="1" height="1"/><rect class="cls-1" x="5" y="3" width="1" height="1"/><rect class="cls-1" x="3" y="9" width="1" height="1"/><rect class="cls-1" x="3" y="8" width="1" height="1"/><rect class="cls-1" x="3" y="7" width="1" height="1"/><rect class="cls-1" x="3" y="6" width="1" height="1"/><rect class="cls-1" x="3" y="5" width="1" height="1"/><rect class="cls-1" x="3" y="4" width="1" height="1"/><rect class="cls-1" x="3" y="3" width="1" height="1"/><rect class="cls-1" x="3" y="2" width="1" height="1"/><rect class="cls-1" x="3" y="1" width="1" height="1"/><rect class="cls-1" x="2" y="5" width="1" height="1"/><rect class="cls-1" x="2" y="1" width="1" height="1"/><rect class="cls-1" x="1" y="5" width="1" height="1"/><rect class="cls-1" x="1" y="1" width="1" height="1"/><rect class="cls-1" y="9" width="1" height="1"/><rect class="cls-1" y="8" width="1" height="1"/><rect class="cls-1" y="7" width="1" height="1"/><rect class="cls-1" y="6" width="1" height="1"/><rect class="cls-1" y="5" width="1" height="1"/><rect class="cls-1" y="4" width="1" height="1"/><rect class="cls-1" y="3" width="1" height="1"/><rect class="cls-1" y="2" width="1" height="1"/><rect class="cls-1" y="1" width="1" height="1"/></svg>