<svg id="Layer_1" data-name="Layer 1" xmlns="http://www.w3.org/2000/svg" viewBox="0 0 12 11"><defs><style>.cls-1{fill:#231f20;}</style></defs><polygon class="cls-1" points="12 3 12 4 5 4 5 3 8 3 8 2 6 2 6 1 8 1 8 0 9 0 9 1 11 1 11 2 9 2 9 3 12 3"/><rect class="cls-1" x="6" y="9" width="1" height="1"/><rect class="cls-1" x="5" y="8" width="1" height="1"/><polygon class="cls-1" points="12 6 12 7 10 7 10 11 8 11 8 10 9 10 9 7 5 7 5 6 9 6 9 5 10 5 10 6 12 6"/><path class="cls-1" d="M0,1v9H1V6H3v4H4V1ZM3,5H1V2H3Z"/></svg>